HIERARCHY
ROOT hip
{
	OFFSET 0.000000 0.000000 0.000000 
	CHANNELS 6 Xposition Yposition Zposition Xrotation Zrotation Yrotation
	JOINT abdomen
	{
		OFFSET 0.000000 3.402643 0.000000 
		CHANNELS 3 Xrotation Zrotation Yrotation
		JOINT chest
		{
			OFFSET 0.000000 8.438565 -0.680529 
			CHANNELS 3 Xrotation Zrotation Yrotation
			JOINT neck
			{
				OFFSET 0.000000 10.207942 -0.272212 
				CHANNELS 3 Xrotation Zrotation Yrotation
				JOINT head
				{
					OFFSET 0.000000 3.130431 0.000000 
					CHANNELS 3 Xrotation Zrotation Yrotation
					End Site
					{
						OFFSET 0.000000 3.130435 0.000000 
					}
				}
			}
			JOINT lCollar
			{
				OFFSET 3.470700 6.669187 -0.816635 
				CHANNELS 3 Yrotation Zrotation Xrotation
				JOINT lShldr
				{
					OFFSET 3.198488 0.000000 0.000000 
					CHANNELS 3 Zrotation Yrotation Xrotation
					JOINT lForeArm
					{
						OFFSET 10.139888 0.000000 0.000000 
						CHANNELS 3 Yrotation Zrotation Xrotation
						JOINT lHand
						{
							OFFSET 8.370511 0.000000 0.000000 
							CHANNELS 3 Zrotation Yrotation Xrotation
							End Site
							{
								OFFSET 4.083176 0.000000 0.000000 
							}
						}
					}
				}
			}
			JOINT rCollar
			{
				OFFSET -3.470700 6.669187 -0.816635 
				CHANNELS 3 Yrotation Zrotation Xrotation
				JOINT rShldr
				{
					OFFSET -3.198488 0.000000 0.000000 
					CHANNELS 3 Zrotation Yrotation Xrotation
					JOINT rForeArm
					{
						OFFSET -10.139888 0.000000 0.000000 
						CHANNELS 3 Yrotation Zrotation Xrotation
						JOINT rHand
						{
							OFFSET -8.370511 0.000000 0.000000 
							CHANNELS 3 Zrotation Yrotation Xrotation
							End Site
							{
								OFFSET -4.083176 0.000000 0.000000 
							}
						}
					}
				}
			}
		}
	}
	JOINT lThigh
	{
		OFFSET 5.308129 -1.633274 1.361059 
		CHANNELS 3 Xrotation Zrotation Yrotation
		JOINT lShin
		{
			OFFSET -2.041588 -20.007561 0.000000 
			CHANNELS 3 Xrotation Zrotation Yrotation
			JOINT lFoot
			{
				OFFSET 0.000000 -19.190928 -1.224953 
				CHANNELS 3 Xrotation Yrotation Zrotation
				End Site
				{
					OFFSET 0.000000 -2.449906 4.627600 
				}
			}
		}
	}
	JOINT rThigh
	{
		OFFSET -5.308129 -1.633274 1.361059 
		CHANNELS 3 Xrotation Zrotation Yrotation
		JOINT rShin
		{
			OFFSET 2.041588 -20.007561 0.000000 
			CHANNELS 3 Xrotation Zrotation Yrotation
			JOINT rFoot
			{
				OFFSET 0.000000 -19.190928 -1.224953 
				CHANNELS 3 Xrotation Yrotation Zrotation
				End Site
				{
					OFFSET 0.000000 -2.449906 4.627600 
				}
			}
		}
	}
}
MOTION
Frames: 18
Frame Time: 0.011111
0.313629 50.990589 20.544260 7.005255 -5.535814 19.465837 21.109417 -8.918117 6.970746 -38.756458 -2.414346 3.177226 -3.696885 -12.424800 -9.958299 0.482379 51.118259 -23.263016 -10.275489 -5.709454 -1.550532 -59.028156 -25.902885 65.396278 -89.013466 4.987240 34.447128 8.524705 12.647240 -63.108776 5.831508 6.350754 -0.460990 -54.709209 48.742588 -92.054382 86.251251 -1.276059 30.013279 -8.534408 -12.637552 48.460796 -37.541832 7.539981 -21.394714 65.970100 -2.032572 -8.630670 -22.418739 -7.882205 -5.850325 -11.527487 -3.095279 8.136147 27.332754 5.458770 4.490284 -16.489580 1.727134 3.455084 
1.483411 51.378151 20.410906 7.557900 -4.089375 11.802531 20.924335 -9.363185 6.761648 -39.929802 -1.588919 3.078286 -3.454188 -11.767457 -10.890273 3.228769 48.932392 -23.898960 -10.275489 -5.709454 -1.550532 -59.866089 -24.416666 67.433411 -89.162987 5.120096 34.555702 8.524705 12.647240 -61.604870 5.831508 6.350754 -0.460990 -53.210167 47.823944 -92.855865 86.250732 -1.276065 30.013283 -8.534408 -12.637552 47.620949 -35.953308 6.670584 -25.195688 62.143787 -2.500241 -8.334292 -21.908863 -12.987116 -8.128255 -11.772129 -5.262462 8.723327 24.999413 5.566262 4.177821 -16.196308 7.146798 5.145394 
2.717336 51.689415 20.296801 7.614375 -2.850945 4.003239 21.047699 -9.107072 6.705003 -41.007877 -0.732601 2.913193 -4.053983 -11.189725 -11.676571 7.441246 45.893978 -23.949892 -10.275489 -5.709454 -1.550532 -60.979950 -22.721035 69.189262 -89.259026 5.202645 34.624855 8.524705 12.647240 -59.729874 5.831508 6.350754 -0.460990 -51.505741 47.549511 -92.515831 86.258728 -1.279796 30.071657 -8.534408 -12.637552 45.599468 -33.336712 6.075060 -28.996677 58.409027 -2.930169 -8.033430 -18.741018 -19.384214 -10.297657 -12.267071 -7.008703 8.924951 23.180601 5.639902 3.941616 -16.095869 12.292257 6.880115 
3.994474 51.935863 20.205645 7.370386 -1.645744 -3.944951 21.464039 -8.672348 6.685982 -41.991974 -0.213564 2.788455 -4.268609 -10.324058 -12.376527 10.122191 42.885956 -24.439829 -10.275489 -5.709454 -1.550532 -61.935535 -20.949829 70.667061 -89.259918 5.202771 34.634579 8.524705 12.647240 -58.675182 5.831508 6.350754 -0.460990 -49.098446 47.475239 -90.991020 86.286224 -1.311273 30.265627 -8.534408 -12.637552 43.822124 -30.662697 6.054808 -30.821293 54.943489 -3.301033 -7.709499 -13.296547 -24.613058 -10.429710 -13.099800 -8.591121 7.994202 21.839407 5.697902 3.754019 -16.532463 17.744652 9.001756 
5.289504 52.161716 20.164122 6.924101 -0.544217 -12.187150 22.106905 -8.128056 6.651040 -43.094807 0.154936 2.655736 -4.002543 -9.434011 -12.975039 11.708605 40.191841 -25.142570 -10.275489 -5.709454 -1.550532 -62.550102 -19.388399 71.651566 -89.172218 5.126500 34.565636 8.524705 12.647240 -57.737679 5.831508 6.350754 -0.460990 -45.995281 47.726398 -88.383530 86.335976 -1.396987 30.573668 -8.534408 -12.637552 42.747902 -27.264465 6.640837 -29.819769 52.032051 -3.584263 -7.420322 -8.459794 -27.980335 -9.448324 -14.445862 -9.615823 8.271237 21.360237 5.717301 3.694839 -15.450580 20.610849 9.775875 
6.581158 52.364952 20.153320 6.392340 0.492946 -20.576838 22.874592 -7.548974 6.245212 -44.093616 0.886946 2.336925 -3.509901 -8.723206 -13.280820 12.624084 37.949924 -25.486048 -10.275489 -5.709454 -1.550532 -63.114071 -18.116669 72.225464 -89.062279 5.028649 34.486420 8.524705 12.647240 -57.259163 5.831508 6.350754 -0.460990 -43.223213 48.877865 -85.954033 86.374245 -1.475931 30.784260 -8.534408 -12.637552 41.995953 -23.653938 7.178887 -25.771578 49.793064 -3.818310 -7.192879 -7.830811 -27.594812 -9.068056 -16.148806 -10.008247 8.112438 21.788727 5.697406 3.759264 -14.030402 20.869864 9.384919 
7.815757 52.514851 20.182013 5.833266 1.438901 -29.002459 23.592979 -6.967972 5.707520 -44.890152 1.449615 2.013589 -2.479557 -8.327552 -13.501721 12.647710 36.757313 -25.941566 -10.275489 -5.709454 -1.550532 -63.301598 -17.394894 72.490440 -88.920708 4.901876 34.379135 8.524705 12.647240 -56.565811 5.831508 6.350754 -0.460990 -40.296761 50.202965 -82.961838 86.373459 -1.476020 30.784273 -8.534408 -12.637552 41.292824 -20.249987 7.607378 -19.713388 48.014698 -3.968463 -7.010301 -8.849938 -23.854225 -8.473635 -17.829920 -9.794051 7.699337 22.834894 5.658526 3.894899 -9.723774 15.553135 6.549968 
8.992967 52.523960 20.217127 5.164639 2.552016 -37.281334 24.134624 -6.881024 4.922895 -45.361210 2.333985 1.620117 -1.676244 -8.224439 -13.730778 13.057372 35.676247 -26.387857 -10.275489 -5.709454 -1.550532 -63.232941 -17.353064 72.754265 -88.782875 4.772164 34.272079 8.524705 12.647240 -56.116589 5.831508 6.350754 -0.460990 -37.899765 51.307991 -79.423477 86.369682 -1.464697 30.755697 -8.534408 -12.637552 40.804539 -17.103609 7.449969 -11.947433 46.617683 -4.104650 -6.851129 -12.908071 -20.021986 -8.759364 -19.593786 -9.431767 7.206295 24.383772 5.591299 4.108178 -6.052390 3.089986 3.568097 
10.136415 52.453064 20.249199 4.399531 3.752464 -45.292637 24.410305 -6.979327 4.151812 -45.413502 2.991834 1.284440 -0.998274 -8.508463 -14.115139 13.675865 34.937729 -27.209921 -10.275489 -5.709454 -1.550532 -63.241745 -18.198666 72.733643 -88.488144 4.486396 34.039810 8.524705 12.647240 -55.901749 5.831508 6.350754 -0.460990 -36.102676 51.770260 -75.837433 86.377769 -1.485984 30.793600 -8.534408 -12.637552 41.956890 -14.834066 6.871272 -4.471550 45.396904 -4.204977 -6.728909 -15.328100 -16.042093 -8.057073 -21.134575 -9.050529 6.591853 26.065798 5.525797 4.314322 -7.342173 -9.184381 2.105943 
11.239351 52.445297 20.281605 3.754318 4.902479 -53.025547 24.379314 -6.986494 3.483558 -45.387363 3.516604 0.992513 -0.321057 -8.610346 -14.314793 14.314092 34.186916 -27.608261 -10.275489 -5.709454 -1.550532 -63.240620 -19.807663 72.492577 -88.073586 4.051732 33.675030 8.524705 12.647240 -56.438850 5.831508 6.350754 -0.460990 -35.062721 52.464676 -73.035049 86.399651 -1.530342 30.908354 -8.534408 -12.637552 43.050636 -13.420577 6.353656 2.521115 44.233913 -4.319200 -6.586392 -16.772739 -13.680719 -7.502379 -22.248207 -8.445540 7.049562 27.514154 5.443716 4.522899 -8.814612 -15.369464 1.254645 
12.341612 52.542191 20.356554 3.305264 5.957479 -60.380402 24.055061 -6.426166 2.755968 -44.936749 3.756710 0.678193 0.466584 -8.551270 -14.244381 14.541601 33.538582 -27.507614 -10.275489 -5.709454 -1.550532 -63.207821 -21.531078 71.617630 -87.708382 3.628725 33.314644 8.524705 12.647240 -57.649796 5.831508 6.350754 -0.460990 -35.107555 53.699741 -71.789978 86.409485 -1.551940 30.956005 -8.534408 -12.637552 44.251816 -13.178185 5.680263 7.220048 43.396355 -4.387358 -6.481775 -17.299528 -11.410604 -6.758548 -23.072687 -7.636038 8.627503 29.195745 5.365779 4.742181 -9.604488 -18.412777 0.786234 
13.401673 52.742729 20.529068 2.725917 6.735133 -67.816399 23.881023 -5.554657 2.158020 -44.483459 3.454731 0.461744 1.232502 -8.911078 -13.917042 15.445020 33.750511 -26.771997 -10.275489 -5.709454 -1.550532 -62.917892 -22.981094 70.759789 -87.441772 3.288401 33.023006 8.524705 12.647240 -58.811897 5.831508 6.350754 -0.460990 -35.019947 55.181374 -71.574333 86.410530 -1.551800 30.955999 -8.534408 -12.637552 45.052589 -13.587125 4.791306 9.575048 43.071621 -4.413513 -6.424905 -17.268946 -7.699368 -5.428247 -23.527945 -6.571999 10.677082 31.403746 5.243798 5.005372 -6.337215 -19.426329 1.750664 
14.400966 52.721119 20.754246 1.797440 7.260589 -75.318291 23.941530 -4.715140 1.374941 -44.133522 2.900655 0.243269 1.926541 -9.849766 -13.300324 17.119995 34.739532 -25.309727 -10.275489 -5.709454 -1.550532 -62.681648 -23.744873 69.727852 -87.290367 3.083276 32.825142 8.524705 12.647240 -59.710339 5.831508 6.350754 -0.460990 -34.951317 56.912624 -72.333389 86.388168 -1.508258 30.850981 -8.534408 -12.637552 45.697124 -14.364882 3.906046 11.846535 43.524075 -4.377806 -6.508346 -17.508505 -3.769834 -4.086415 -23.839941 -6.386161 9.725038 34.192123 5.062055 5.377880 -4.682199 -20.264709 2.236017 
15.336454 52.481091 21.014534 0.812228 7.567294 -82.906738 24.021233 -3.843765 0.693904 -43.538181 2.192213 0.082038 2.577880 -10.473633 -12.838054 18.562124 35.089085 -24.243973 -10.275489 -5.709454 -1.550532 -62.825214 -24.496483 68.168625 -87.121582 2.838530 32.591007 8.524705 12.647240 -61.224007 5.831508 6.350754 -0.460990 -34.942924 58.522392 -73.310600 86.358650 -1.443038 30.708082 -8.534408 -12.637552 46.331890 -15.436299 3.601621 14.952797 44.588352 -4.290156 -6.634446 -17.861080 -0.415439 -2.968877 -24.118547 -6.474335 8.523438 37.140064 4.856725 5.750451 -5.665674 -22.311562 1.920114 
16.164923 52.228905 21.248491 -0.620723 7.515651 -90.721603 24.246719 -3.621878 -0.202969 -42.887936 1.623375 -0.085744 3.524817 -11.095441 -12.504996 19.678228 35.171692 -23.510244 -10.275489 -5.709454 -1.550532 -62.817432 -25.191656 66.420731 -86.982422 2.624533 32.385605 8.524705 12.647240 -62.571663 5.831508 6.350754 -0.460990 -34.824455 60.075741 -74.317070 86.326416 -1.384767 30.525427 -8.534408 -12.637552 47.015484 -16.282171 3.345266 18.367214 45.908314 -4.189890 -6.757510 -18.425854 2.816702 -1.903216 -24.028151 -7.167399 7.843269 39.960972 4.658042 6.068060 -8.104676 -25.970581 0.995673 
16.884684 52.124245 21.453751 -2.173642 6.887933 -98.630943 24.876638 -3.851346 -1.184280 -42.640427 1.180086 -0.242311 4.066890 -12.093434 -11.907570 21.463894 35.710159 -22.190727 -10.275489 -5.709454 -1.550532 -62.857937 -25.527294 65.234901 -86.893745 2.478618 32.235703 8.524705 12.647240 -63.499401 5.831508 6.350754 -0.460990 -34.268337 61.455986 -73.911560 86.282059 -1.309521 30.236435 -8.534408 -12.637552 48.011578 -16.594252 3.256228 21.847157 47.020836 -4.075820 -6.892867 -18.967897 5.781884 -0.930167 -23.404556 -8.446421 6.871703 42.006699 4.485435 6.310658 -11.960645 -28.406973 -0.791107 
17.494051 52.122223 21.627277 -3.613846 5.918704 -106.671600 25.351374 -4.386393 -2.054416 -42.130466 0.838061 -0.348309 4.153358 -13.148831 -11.191046 23.480812 36.477093 -20.627436 -10.275489 -5.709454 -1.550532 -63.071632 -25.804253 64.537354 -86.826805 2.367416 32.104599 8.524705 12.647240 -63.645889 5.831508 6.350754 -0.460990 -33.506027 62.463768 -72.207268 86.243782 -1.272271 29.954685 -8.534408 -12.637552 49.447124 -16.462631 3.240515 25.016050 47.798229 -4.005324 -6.968735 -19.832253 8.346147 -0.008051 -22.534267 -10.486391 4.474550 43.190170 4.387633 6.464090 -16.170139 -27.821274 -2.710190 
18.028807 52.125935 21.744423 -4.799417 4.857460 -114.565697 25.456696 -4.870052 -2.982265 -41.367004 0.482252 -0.483300 4.039924 -13.936028 -10.524610 25.479233 36.784580 -19.317331 -10.275489 -5.709454 -1.550532 -63.581051 -26.154207 63.781250 -86.748268 2.227156 31.955290 8.524705 12.647240 -64.163467 5.831508 6.350754 -0.460990 -32.463768 63.440083 -69.345299 86.219673 -1.260566 29.778959 -8.534408 -12.637552 51.673687 -16.253971 3.373224 27.705566 48.319939 -3.949284 -7.018258 -20.869701 10.449492 0.875536 -21.831795 -12.800341 1.094655 43.723419 4.338688 6.511236 -19.438646 -26.711639 -4.115330 
